<svg t="1607699925302" class="icon" viewBox="0 0 1024 1024" version="1.1" xmlns="http://www.w3.org/2000/svg" p-id="6694" width="200" height="200"><path d="M618.3 756.9l37.9-71.2c11.2-21 35.3-31.7 58.4-26L888 702.9c23.1 5.8 39.4 26.6 39.4 50.4l0.1 72.6h0.5v50.2c0 29.7-24.9 53.9-54.6 52-415.9-27-748.4-359.5-775.3-775.3-1.9-29.7 22.2-54.6 52-54.6h50.2v0.2l71.1 0.1c23.9 0 44.7 16.3 50.4 39.4L365 311.3c5.8 23.1-4.9 47.3-26 58.5L268.9 407c72.3 153.7 195.8 277.4 349.4 349.9z" p-id="6695" fill="#768c99"></path></svg>
